<svg width="48" height="48" viewBox="0 0 48 48" fill="none" xmlns="http://www.w3.org/2000/svg">
<path fill-rule="evenodd" clip-rule="evenodd" d="M24.3841 6.62181C25.1482 7.38654 25.207 8.58985 24.5605 9.42205L24.3835 9.62256L12.0108 21.9946H40.0007C41.1049 21.9946 42 22.8905 42 23.9956C42 25.1006 41.1049 25.9965 40.0007 25.9965H12.0108L24.384 38.3771C25.1484 39.142 25.2073 40.3457 24.5607 41.1782L24.3841 41.3783C23.556 42.2072 22.2133 42.2072 21.3851 41.3785L7.40686 27.391C5.61674 25.6023 5.53514 22.7505 7.16104 20.8637L7.40767 20.601L21.3847 6.62133C22.2132 5.7927 23.5559 5.79292 24.3841 6.62181Z" fill="white"/>
</svg>
