<svg width="128" height="128" viewBox="0 0 128 128" fill="none" xmlns="http://www.w3.org/2000/svg">
<g id="Play Button" clip-path="url(#clip0_31_539)">
<g id="Union">
<path d="M98.6667 68.6188C102.222 66.566 102.222 61.434 98.6667 59.3812L50.6667 31.6684C47.1111 29.6156 42.6667 32.1816 42.6667 36.2872L42.6667 91.7128C42.6667 95.8184 47.1111 98.3844 50.6667 96.3316L98.6667 68.6188Z" fill="white"/>
<path fill-rule="evenodd" clip-rule="evenodd" d="M64 0C28.6538 0 0 28.6538 0 64C0 99.3462 28.6538 128 64 128C99.3462 128 128 99.3462 128 64C128 28.6538 99.3462 0 64 0ZM10.6667 64C10.6667 34.5448 34.5448 10.6667 64 10.6667C93.4552 10.6667 117.333 34.5448 117.333 64C117.333 93.4552 93.4552 117.333 64 117.333C34.5448 117.333 10.6667 93.4552 10.6667 64Z" fill="white"/>
</g>
</g>
<defs>
<clipPath id="clip0_31_539">
<rect width="128" height="128" fill="white"/>
</clipPath>
</defs>
</svg>
